<svg width="21" height="20" viewBox="0 0 21 20" fill="none" xmlns="http://www.w3.org/2000/svg">
<path fill-rule="evenodd" clip-rule="evenodd" d="M18.9 3.96322H13.0347L15.4424 1.51173L13.9576 0L10.5 3.52061L7.04235 0L5.55765 1.51173L7.9653 3.96322H2.1C0.94185 3.96322 0 4.92222 0 6.10146V17.8618C0 19.041 0.94185 20 2.1 20H18.9C20.0581 20 21 19.041 21 17.8618V6.10146C21 4.92222 20.0581 3.96322 18.9 3.96322ZM2.1 17.8618V6.10146H18.9L18.9021 17.8618H2.1ZM3 8H6V11H3V8ZM6 12H3V15H6V12ZM7 8H10V11H7V8ZM10 12H7V15H10V12ZM11 8H14V11H11V8ZM14 12H11V15H14V12ZM15 8H18V11H15V8ZM18 12H15V15H18V12Z" fill="#A4A4A4"/>
</svg>
