<svg width="61" height="11" viewBox="0 0 61 11" fill="none" xmlns="http://www.w3.org/2000/svg">
<path fill-rule="evenodd" clip-rule="evenodd" d="M27.683 3.26865C27.0977 2.67133 26.3859 2.37282 25.5159 2.37282C24.6458 2.37282 23.934 2.67133 23.3488 3.26865C22.7635 3.86582 22.4787 4.6199 22.4787 5.51573C22.4787 6.41142 22.7635 7.15006 23.3488 7.74709C23.934 8.32867 24.6458 8.62718 25.5159 8.62718C26.3859 8.62718 27.0977 8.32867 27.683 7.74709C28.2683 7.15006 28.553 6.41142 28.553 5.51573C28.553 4.6199 28.2683 3.86582 27.683 3.26865ZM29.518 9.41274C28.4266 10.4658 27.0977 11 25.5159 11C23.934 11 22.5895 10.4658 21.4981 9.41274C20.4065 8.34426 19.8687 7.03992 19.8687 5.51573C19.8687 3.97567 20.4065 2.67133 21.4981 1.60286C22.5895 0.534238 23.934 0 25.5159 0C27.0977 0 28.4266 0.534238 29.518 1.60286C30.6095 2.67133 31.1631 3.97567 31.1631 5.51573C31.1631 7.03992 30.6095 8.34426 29.518 9.41274ZM5.77377 3.15858L7.13414 6.61575H4.42925L5.77377 3.15858ZM8.74763 10.7642H11.5317L7.10246 0.235652H5.69161C4.92701 0.235652 4.23721 0.692066 3.94251 1.39277L0 10.7642H2.79992L3.54331 8.8471H8.00424L8.74763 10.7642ZM15.9431 10.7643V7.46421L20.1351 0.235764H17.2244L14.646 4.85567L12.0359 0.235764H9.18866L13.2856 7.49581V10.7643H15.9431ZM39.6876 10.7643L40.6065 8.57997H35.5226L39.2551 3.78236C40.0452 2.7667 40.474 1.5194 40.474 0.235708H31.9635V2.42H37.1521L32.8491 7.79498C32.1733 8.63911 31.8054 9.68581 31.8054 10.7643H39.6876ZM48.7175 6.61575L47.357 3.15858L46.0124 6.61575H48.7175ZM53.115 10.7642H50.331L49.5874 8.8471H45.1266L44.3833 10.7642H41.5833L45.5257 1.39277C45.8205 0.692066 46.5103 0.235652 47.2749 0.235652H48.6858L53.115 10.7642ZM57.5674 2.49864H61V0.23568H51.5407V2.49864H54.9732V10.7642H57.5674V2.49864Z" fill="url(#paint0_linear_301_12629)"/>
<defs>
<linearGradient id="paint0_linear_301_12629" x1="91.5" y1="5.5" x2="87.6577" y2="-15.8071" gradientUnits="userSpaceOnUse">
<stop stop-color="#F45532"/>
<stop offset="1" stop-color="#F30368"/>
</linearGradient>
</defs>
</svg>
